<svg width="40" height="40" viewBox="0 0 40 40" fill="none" xmlns="http://www.w3.org/2000/svg">
<mask id="mask0_585_6059" style="mask-type:alpha" maskUnits="userSpaceOnUse" x="0" y="0" width="40" height="40">
<rect width="40" height="40" fill="#D9D9D9"/>
</mask>
<g mask="url(#mask0_585_6059)">
<path d="M20.8675 25.3835C21.1039 25.1435 21.2221 24.8543 21.2221 24.516C21.2221 24.1776 21.1039 23.8885 20.8675 23.6485C20.6311 23.4085 20.3419 23.2885 20 23.2885C19.6581 23.2885 19.3689 23.4085 19.1325 23.6485C18.8961 23.8885 18.7779 24.1776 18.7779 24.516C18.7779 24.8543 18.8961 25.1435 19.1325 25.3835C19.3689 25.6237 19.6581 25.7439 20 25.7439C20.3419 25.7439 20.6311 25.6237 20.8675 25.3835ZM18.9529 20.6005H21.0471V12.4039H18.9529V20.6005ZM20 35.7843C16.3839 34.7943 13.3965 32.65 11.0379 29.3514C8.67931 26.053 7.5 22.389 7.5 18.3593V8.89345L20 4.21387L32.5 8.89345V18.3593C32.5 22.389 31.3207 26.053 28.9621 29.3514C26.6035 32.65 23.6161 34.7943 20 35.7843ZM20 33.5897C23.0356 32.6091 25.5288 30.6997 27.4796 27.8614C29.4304 25.023 30.4058 21.8557 30.4058 18.3593V10.343L20 6.44012L9.59417 10.343V18.3593C9.59417 21.8557 10.5696 25.023 12.5204 27.8614C14.4712 30.6997 16.9644 32.6091 20 33.5897Z" fill="#EC5B13"/>
</g>
</svg>
