<svg width="32" height="32" viewBox="0 0 32 32" fill="none" xmlns="http://www.w3.org/2000/svg">
<mask id="mask0_582_2673" style="mask-type:alpha" maskUnits="userSpaceOnUse" x="0" y="0" width="32" height="32">
<rect width="32" height="32" fill="#D9D9D9"/>
</mask>
<g mask="url(#mask0_582_2673)">
<path d="M16.694 20.3068C16.8831 20.1148 16.9777 19.8834 16.9777 19.6128C16.9777 19.3421 16.8831 19.1108 16.694 18.9188C16.5049 18.7268 16.2736 18.6308 16 18.6308C15.7264 18.6308 15.4951 18.7268 15.306 18.9188C15.1169 19.1108 15.0223 19.3421 15.0223 19.6128C15.0223 19.8834 15.1169 20.1148 15.306 20.3068C15.4951 20.499 15.7264 20.5951 16 20.5951C16.2736 20.5951 16.5049 20.499 16.694 20.3068ZM15.1623 16.4804H16.8377V9.92309H15.1623V16.4804ZM16 28.6274C13.1071 27.8354 10.7172 26.12 8.83033 23.4811C6.94344 20.8424 6 17.9112 6 14.6874V7.11476L16 3.37109L26 7.11476V14.6874C26 17.9112 25.0566 20.8424 23.1697 23.4811C21.2828 26.12 18.8929 27.8354 16 28.6274ZM16 26.8718C18.4284 26.0873 20.423 24.5598 21.9837 22.2891C23.5443 20.0184 24.3247 17.4845 24.3247 14.6874V8.27443L16 5.15209L7.67533 8.27443V14.6874C7.67533 17.4845 8.45567 20.0184 10.0163 22.2891C11.577 24.5598 13.5716 26.0873 16 26.8718Z" fill="#526E8D"/>
</g>
</svg>
