<svg width="32" height="32" viewBox="0 0 32 32" fill="none" xmlns="http://www.w3.org/2000/svg">
<mask id="mask0_582_2674" style="mask-type:alpha" maskUnits="userSpaceOnUse" x="0" y="0" width="32" height="32">
<rect width="32" height="32" fill="#D9D9D9"/>
</mask>
<g mask="url(#mask0_582_2674)">
<path d="M2.15381 16.838V15.1626H9.36048V16.838H2.15381ZM10.6801 11.86L8.15714 9.32863L9.32814 8.14896L11.8595 10.6806L10.6801 11.86ZM15.1621 9.36096V2.1543H16.8375V9.36096H15.1621ZM21.3195 11.86L20.1401 10.6806L22.6715 8.14896L23.8511 9.32863L21.3195 11.86ZM22.6391 16.838V15.1626H29.8458V16.838H22.6391ZM13.8355 18.1646C13.2488 17.5782 12.9555 16.8567 12.9555 16.0003C12.9555 15.1439 13.2488 14.4224 13.8355 13.836C14.4219 13.2493 15.1434 12.956 15.9998 12.956C16.8563 12.956 17.5777 13.2493 18.1641 13.836C18.7508 14.4224 19.0441 15.1439 19.0441 16.0003C19.0441 16.8567 18.7508 17.5782 18.1641 18.1646C17.5777 18.7513 16.8563 19.0446 15.9998 19.0446C15.1434 19.0446 14.4219 18.7513 13.8355 18.1646ZM22.7485 23.9283L20.1401 21.32L21.3195 20.1406L23.9278 22.749L22.7485 23.9283ZM9.25114 23.9283L8.07181 22.749L10.6801 20.1406L11.8595 21.32L9.25114 23.9283ZM15.1621 29.8463V22.6396H16.8375V29.8463H15.1621Z" fill="#526E8D"/>
</g>
</svg>
