<svg width="24" height="24" viewBox="0 0 24 24" fill="none" xmlns="http://www.w3.org/2000/svg">
<mask id="mask0_579_2565" style="mask-type:alpha" maskUnits="userSpaceOnUse" x="0" y="0" width="24" height="24">
<rect width="24" height="24" fill="#D9D9D9"/>
</mask>
<g mask="url(#mask0_579_2565)">
<path d="M5.30775 20.5C4.80908 20.5 4.38308 20.3234 4.02975 19.9703C3.67658 19.6169 3.5 19.1909 3.5 18.6923V5.30775C3.5 4.80908 3.67658 4.38308 4.02975 4.02975C4.38308 3.67658 4.80908 3.5 5.30775 3.5H18.6923C19.1909 3.5 19.6169 3.67658 19.9703 4.02975C20.3234 4.38308 20.5 4.80908 20.5 5.30775V18.6923C20.5 19.1909 20.3234 19.6169 19.9703 19.9703C19.6169 20.3234 19.1909 20.5 18.6923 20.5H5.30775ZM5.30775 19H18.6923C18.7821 19 18.8558 18.9712 18.9135 18.9135C18.9712 18.8558 19 18.7821 19 18.6923V7H5V18.6923C5 18.7821 5.02883 18.8558 5.0865 18.9135C5.14417 18.9712 5.21792 19 5.30775 19ZM8.703 15.527C7.7305 14.8782 7.01217 14.0358 6.548 13C7.01217 11.9642 7.7305 11.1218 8.703 10.473C9.67533 9.82433 10.7743 9.5 12 9.5C13.2257 9.5 14.3247 9.82433 15.297 10.473C16.2695 11.1218 16.9878 11.9642 17.452 13C16.9878 14.0358 16.2695 14.8782 15.297 15.527C14.3247 16.1757 13.2257 16.5 12 16.5C10.7743 16.5 9.67533 16.1757 8.703 15.527ZM14.3818 14.698C15.1068 14.2917 15.6955 13.7257 16.148 13C15.6955 12.2743 15.1068 11.7083 14.3818 11.302C13.6568 10.8955 12.8628 10.6923 12 10.6923C11.1372 10.6923 10.3433 10.8955 9.61825 11.302C8.89325 11.7083 8.3045 12.2743 7.852 13C8.3045 13.7257 8.89325 14.2917 9.61825 14.698C10.3433 15.1045 11.1372 15.3077 12 15.3077C12.8628 15.3077 13.6568 15.1045 14.3818 14.698ZM12.9277 13.9277C13.1811 13.6746 13.3077 13.3653 13.3077 13C13.3077 12.6347 13.1811 12.3254 12.9277 12.0723C12.6746 11.8189 12.3653 11.6923 12 11.6923C11.6347 11.6923 11.3254 11.8189 11.0723 12.0723C10.8189 12.3254 10.6923 12.6347 10.6923 13C10.6923 13.3653 10.8189 13.6746 11.0723 13.9277C11.3254 14.1811 11.6347 14.3077 12 14.3077C12.3653 14.3077 12.6746 14.1811 12.9277 13.9277Z" fill="#7D1919"/>
</g>
</svg>
