<svg width="24" height="24" viewBox="0 0 24 24" fill="none" xmlns="http://www.w3.org/2000/svg">
<mask id="mask0_585_3965" style="mask-type:alpha" maskUnits="userSpaceOnUse" x="0" y="0" width="24" height="24">
<rect width="24" height="24" fill="#D9D9D9"/>
</mask>
<g mask="url(#mask0_585_3965)">
<path d="M12.927 12.927C13.4115 12.4423 13.6538 11.8513 13.6538 11.1538C13.6538 10.4564 13.4115 9.86542 12.927 9.38075C12.4423 8.89608 11.8512 8.65375 11.1537 8.65375C10.4564 8.65375 9.86542 8.89608 9.38075 9.38075C8.89608 9.86542 8.65375 10.4564 8.65375 11.1538C8.65375 11.8513 8.89608 12.4423 9.38075 12.927C9.86542 13.4115 10.4564 13.6538 11.1537 13.6538C11.8512 13.6538 12.4423 13.4115 12.927 12.927ZM16.0845 17.1538L13.3923 14.452C13.0589 14.6878 12.7032 14.8638 12.325 14.9798C11.9468 15.0958 11.5564 15.1538 11.1537 15.1538C10.0409 15.1538 9.09608 14.7653 8.31925 13.9885C7.54225 13.2115 7.15375 12.2666 7.15375 11.1538C7.15375 10.0409 7.54225 9.09608 8.31925 8.31925C9.09608 7.54225 10.0409 7.15375 11.1537 7.15375C12.2666 7.15375 13.2115 7.54225 13.9885 8.31925C14.7653 9.09608 15.1538 10.0409 15.1538 11.1538C15.1538 11.5564 15.0932 11.9468 14.972 12.325C14.8508 12.7032 14.6723 13.0589 14.4365 13.3923L17.1538 16.1L16.0845 17.1538ZM5.30775 20.5C4.80258 20.5 4.375 20.325 4.025 19.975C3.675 19.625 3.5 19.1974 3.5 18.6923V15H5V18.6923C5 18.7693 5.03208 18.8398 5.09625 18.9038C5.16025 18.9679 5.23075 19 5.30775 19H9V20.5H5.30775ZM15 20.5V19H18.6923C18.7693 19 18.8398 18.9679 18.9038 18.9038C18.9679 18.8398 19 18.7693 19 18.6923V15H20.5V18.6923C20.5 19.1974 20.325 19.625 19.975 19.975C19.625 20.325 19.1974 20.5 18.6923 20.5H15ZM3.5 9V5.30775C3.5 4.80258 3.675 4.375 4.025 4.025C4.375 3.675 4.80258 3.5 5.30775 3.5H9V5H5.30775C5.23075 5 5.16025 5.03208 5.09625 5.09625C5.03208 5.16025 5 5.23075 5 5.30775V9H3.5ZM19 9V5.30775C19 5.23075 18.9679 5.16025 18.9038 5.09625C18.8398 5.03208 18.7693 5 18.6923 5H15V3.5H18.6923C19.1974 3.5 19.625 3.675 19.975 4.025C20.325 4.375 20.5 4.80258 20.5 5.30775V9H19Z" fill="#EA580C"/>
</g>
</svg>
