<svg width="40" height="40" viewBox="0 0 40 40" fill="none" xmlns="http://www.w3.org/2000/svg">
<mask id="mask0_576_644" style="mask-type:alpha" maskUnits="userSpaceOnUse" x="0" y="0" width="40" height="40">
<rect width="40" height="40" fill="#D9D9D9"/>
</mask>
<g mask="url(#mask0_576_644)">
<path d="M2.69238 21.047V18.9528H11.7007V21.047H2.69238ZM13.3503 14.8245L10.1965 11.6603L11.6603 10.1857L14.8245 13.3503L13.3503 14.8245ZM18.9528 11.7007V2.69238H21.047V11.7007H18.9528ZM26.6495 14.8245L25.1753 13.3503L28.3395 10.1857L29.814 11.6603L26.6495 14.8245ZM28.299 21.047V18.9528H37.3074V21.047H28.299ZM17.2945 22.7053C16.5611 21.9722 16.1945 21.0704 16.1945 19.9999C16.1945 18.9293 16.5611 18.0275 17.2945 17.2945C18.0275 16.5611 18.9293 16.1945 19.9999 16.1945C21.0704 16.1945 21.9722 16.5611 22.7053 17.2945C23.4386 18.0275 23.8053 18.9293 23.8053 19.9999C23.8053 21.0704 23.4386 21.9722 22.7053 22.7053C21.9722 23.4386 21.0704 23.8053 19.9999 23.8053C18.9293 23.8053 18.0275 23.4386 17.2945 22.7053ZM28.4357 29.9099L25.1753 26.6495L26.6495 25.1753L29.9099 28.4357L28.4357 29.9099ZM11.5641 29.9099L10.0899 28.4357L13.3503 25.1753L14.8245 26.6495L11.5641 29.9099ZM18.9528 37.3074V28.299H21.047V37.3074H18.9528Z" fill="#7D1919"/>
</g>
</svg>
