<svg width="161" height="57" viewBox="0 0 161 57" fill="none" xmlns="http://www.w3.org/2000/svg">
<rect x="1.37892" y="20.8405" width="155.5" height="28.5" rx="3.25" transform="rotate(-5 1.37892 20.8405)" stroke="#FF0000" stroke-width="1.5"/>
<path d="M17.7257 37.7282C18.4948 37.6485 19.0955 37.3476 19.5279 36.8255C20.085 36.1684 20.3489 35.1395 20.3195 33.7389L21.4139 34.0064C21.4214 36.0794 20.8056 37.5209 19.5664 38.3308C19.1023 38.6322 18.5232 38.8257 17.8292 38.9112L17.7257 37.7282ZM14.1415 32.3144C14.444 35.771 15.3645 37.5995 16.9031 37.8002L17.0066 38.9832C15.2873 39.0591 13.8456 38.5116 12.6815 37.3407C11.5436 36.1861 10.8912 34.6538 10.7241 32.7438C10.551 30.766 10.9468 29.0799 11.9113 27.6855C12.3693 27.0308 12.9313 26.5005 13.5974 26.0945C14.2634 25.6886 15.0031 25.45 15.8164 25.3789L15.9199 26.5619C14.7228 26.8591 14.1037 28.0494 14.0624 30.1329C14.0456 30.7924 14.072 31.5196 14.1415 32.3144ZM16.6389 25.3069C17.1506 25.3367 17.5863 25.4196 17.9459 25.5558C18.3116 25.6914 18.5591 25.7877 18.6882 25.8447C18.8236 25.9012 18.9343 25.9256 19.0206 25.9181C19.1069 25.9105 19.1765 25.8548 19.2295 25.7508C19.2886 25.6463 19.3484 25.5138 19.4089 25.3533L20.2869 25.2765L20.7041 30.0454L20.0017 30.1068C19.8288 29.9046 19.6189 29.5629 19.3719 29.0816C19.1244 28.5942 18.9207 28.2178 18.7609 27.9524C18.6072 27.6864 18.4342 27.447 18.2417 27.2341C17.7965 26.7578 17.2967 26.5097 16.7424 26.4899L16.6389 25.3069ZM29.1137 37.9239C27.3261 37.9996 25.8377 37.4159 24.6487 36.1726C23.5293 35.0165 22.889 33.5172 22.7279 31.675C22.5667 29.8327 22.9263 28.2305 23.8067 26.8683C24.7473 25.414 26.0888 24.5671 27.8311 24.3277L27.9345 25.5107C26.7134 25.8162 26.0936 27.106 26.0752 29.3799C26.0702 30.0322 26.0976 30.7003 26.1575 31.3843C26.2168 32.062 26.3053 32.7186 26.4229 33.354C26.5462 33.9827 26.7165 34.5451 26.9338 35.0414C27.419 36.1165 28.1111 36.683 29.0102 36.741L29.1137 37.9239ZM31.517 30.906C31.2055 27.3448 30.2855 25.5223 28.7571 25.4388L28.6536 24.2558C30.4238 24.194 31.892 24.7951 33.058 26.059C34.1621 27.2537 34.7944 28.7692 34.9551 30.6052C35.1152 32.4352 34.7635 34.0212 33.8999 35.3633C32.9869 36.778 31.6657 37.6076 29.9362 37.852L29.8327 36.669C31.0079 36.4048 31.5995 35.1486 31.6077 32.9004C31.6071 32.2547 31.5769 31.5899 31.517 30.906ZM46.2651 30.0162L45.8115 24.8314C45.7781 24.4494 45.6043 24.2008 45.2899 24.0855C45.1485 24.0295 44.9899 23.9906 44.8141 23.9688C44.6378 23.9407 44.4571 23.8976 44.2719 23.8393L44.2145 23.1831L48.318 22.8241L48.3754 23.4803C48.2094 23.5693 48.042 23.6429 47.8732 23.7011C47.7101 23.7527 47.5637 23.8182 47.4341 23.8979C47.1446 24.066 47.0165 24.3411 47.05 24.7231L47.6637 31.7378L46.2651 30.0162ZM38.649 27.9073L39.2563 34.8481C39.3064 35.4211 39.6784 35.7704 40.3724 35.8959C40.5554 35.9296 40.7302 35.9764 40.8968 36.0363L40.9551 36.7017L36.7314 37.0712L36.6732 36.4058C36.8208 36.3184 36.9756 36.2428 37.1376 36.1789C37.3059 36.1145 37.457 36.033 37.5912 35.9343C37.9134 35.7137 38.0556 35.3877 38.0178 34.9564L37.2497 26.1765L38.649 27.9073ZM37.5703 25.2637C37.2697 25.2342 37.0035 25.2078 36.7718 25.1846C36.2467 25.1436 35.9117 25.1108 35.7667 25.0863L35.6656 23.931L39.9632 23.555L47.7922 33.2073L48.0437 36.0815L46.4448 36.2214L37.5703 25.2637ZM53.4751 22.3729L54.4267 33.2508C54.4704 33.7498 54.5542 34.0685 54.678 34.2066C54.808 34.3443 54.9242 34.4303 55.0265 34.4648C55.1345 34.4926 55.2481 34.5137 55.3673 34.5281C55.4927 34.542 55.6245 34.5584 55.7628 34.5774C55.9067 34.5896 56.0555 34.6231 56.2093 34.678L56.2691 35.3619L50.2341 35.8899L50.1742 35.206C50.3347 35.1237 50.4905 35.0604 50.6419 35.0161C50.7988 34.9651 50.9362 34.9034 51.0541 34.831C51.3195 34.6712 51.4355 34.4003 51.4021 34.0183L50.5983 24.8317C50.5557 24.3449 50.4792 24.0381 50.3688 23.9112C50.2578 23.7781 50.1576 23.6968 50.0681 23.6674C49.9847 23.6375 49.893 23.6176 49.7928 23.6077C49.5045 23.577 49.2888 23.5245 49.1457 23.4501L49.0851 22.757L53.4751 22.3729ZM57.1349 22.0527C58.1823 21.9611 58.9423 21.848 59.4148 21.7135L59.8062 26.1867L59.1592 26.2433C58.9609 26.1054 58.7994 25.9271 58.6747 25.7083C58.5495 25.4833 58.4265 25.2488 58.3058 25.0048C58.1846 24.7547 58.0483 24.509 57.8968 24.2677C57.7514 24.0258 57.5528 23.8135 57.3009 23.6307C56.7491 23.2133 55.9556 23.0499 54.9205 23.1405C54.7233 23.1577 54.5424 23.1828 54.3776 23.2159L54.2976 22.3009L57.1349 22.0527ZM54.8038 28.0864L55.2904 28.0066C55.9212 27.908 56.3141 27.6439 56.469 27.2144C56.5142 27.0924 56.556 26.9677 56.5945 26.8402C56.7071 26.4951 56.8368 26.2385 56.9835 26.0704L57.6674 26.0106L58.0677 30.5854L57.3838 30.6452C57.2184 30.5293 57.0706 30.3653 56.9403 30.1532C56.8161 29.9406 56.7091 29.7823 56.6193 29.6784C56.5352 29.5678 56.4213 29.4722 56.2776 29.3917C55.9635 29.208 55.5033 29.1273 54.8968 29.1493L54.8038 28.0864ZM62.1356 23.8596C62.0914 23.3543 62.0141 23.0383 61.9037 22.9113C61.7988 22.7777 61.7017 22.6962 61.6122 22.6668C61.5289 22.6368 61.4368 22.6138 61.3361 22.5978C61.2354 22.5818 61.1285 22.5663 61.0154 22.5513C60.9085 22.5359 60.7966 22.4991 60.6798 22.441L60.6192 21.7479L66.303 21.2506L66.3637 21.9437C66.2587 22.0212 66.1549 22.0769 66.0523 22.1107C65.9497 22.1445 65.8502 22.178 65.7538 22.2113C65.6574 22.2446 65.5707 22.2832 65.4939 22.3272C65.417 22.3711 65.3518 22.442 65.2983 22.5398C65.1851 22.736 65.1505 23.0867 65.1947 23.5919L65.9548 32.2794C65.9995 32.7908 66.0743 33.1133 66.1791 33.247C66.2896 33.3739 66.3865 33.4523 66.4698 33.4823C66.5593 33.5117 66.6544 33.5344 66.7552 33.5505C67.0563 33.5862 67.2686 33.6359 67.3922 33.6996L67.452 34.3835L61.7681 34.8808L61.7083 34.1969C61.8687 34.1146 62.0246 34.0513 62.176 34.007C62.3329 33.956 62.4703 33.8943 62.5881 33.8219C62.8535 33.6621 62.9695 33.3912 62.9361 33.0092L62.1356 23.8596ZM73.1636 33.8838L68.7736 34.2679L68.7138 33.584C68.8742 33.5017 69.0301 33.4384 69.1814 33.3941C69.3384 33.3431 69.4758 33.2814 69.5936 33.209C69.859 33.0492 69.975 32.7783 69.9416 32.3963L69.1015 22.7938C69.0675 22.4056 68.906 22.1559 68.6169 22.0446C68.4882 21.9938 68.3425 21.96 68.1796 21.9432C68.0223 21.9197 67.8575 21.8813 67.6853 21.8281L67.6246 21.135L72.0146 20.7509L73.1636 33.8838ZM76.2969 22.6486C75.9853 22.2102 75.6073 21.8987 75.1628 21.7141C74.7177 21.5233 74.2733 21.4473 73.8297 21.4861C73.3923 21.5244 73.0884 21.5634 72.918 21.6031L72.8371 20.6789L73.7429 20.5997C75.9301 20.4083 77.6653 20.9394 78.9484 22.1931C80.0892 23.3101 80.7388 24.7744 80.8973 26.5858C81.0617 28.465 80.6601 30.0492 79.6926 31.3383C78.6363 32.7469 77.0699 33.5421 74.9935 33.7237L73.9861 33.8119L73.9053 32.8877C74.1046 32.8951 74.4137 32.8804 74.8327 32.8438C75.2517 32.8071 75.6656 32.6778 76.0746 32.4557C76.4892 32.227 76.8157 31.8787 77.0541 31.4108C77.5153 30.5075 77.6534 28.9992 77.4685 26.8858C77.2965 24.9203 76.906 23.5079 76.2969 22.6486ZM86.1272 19.5162L87.2762 32.6491L82.9047 33.0316L82.8448 32.3477C83.0053 32.2653 83.1612 32.202 83.3125 32.1578C83.4695 32.1068 83.6069 32.0451 83.7247 31.9727C83.9901 31.8129 84.1061 31.542 84.0727 31.16L83.2326 21.5575C83.1986 21.1693 83.0371 20.9196 82.7479 20.8083C82.6193 20.7575 82.4736 20.7237 82.3107 20.7069C82.1534 20.6834 81.9886 20.645 81.8163 20.5918L81.7557 19.8986L86.1272 19.5162ZM88.0179 31.653C88.3281 31.6507 88.7204 31.6288 89.1948 31.5872C89.6693 31.5457 90.0879 31.4346 90.4508 31.2539C90.8199 31.0726 91.1115 30.8577 91.3257 30.6092C91.5455 30.3541 91.7108 30.0789 91.8215 29.7836C91.9323 29.4883 92.0251 29.2008 92.1 28.9211C92.1743 28.6352 92.2508 28.3739 92.3294 28.1373C92.4137 27.894 92.5395 27.6999 92.7068 27.5549L93.3353 27.4999L93.7364 32.0839L88.0987 32.5772L88.0179 31.653ZM89.9538 20.7832C89.7199 20.5926 89.4339 20.4469 89.0961 20.346C88.7644 20.2447 88.3828 20.2129 87.9516 20.2506C87.5203 20.2883 87.213 20.3245 87.0298 20.3592L86.9497 19.4442L89.0384 19.2615C90.4247 19.1402 91.4281 19.0059 92.0484 18.8585L92.4398 23.3316L91.7929 23.3882C91.6259 23.2538 91.4801 23.0772 91.3554 22.8584C91.2307 22.6396 91.1018 22.4087 90.9688 22.1658C90.8414 21.9162 90.6989 21.671 90.5413 21.4303C90.3831 21.1833 90.1873 20.9677 89.9538 20.7832ZM87.4147 24.7584L90.4923 24.4891L90.6993 26.8551L87.6217 27.1244L87.4147 24.7584ZM104.638 24.9092L104.184 19.7245C104.151 19.3425 103.977 19.0938 103.663 18.9785C103.521 18.9226 103.363 18.8837 103.187 18.8618C103.011 18.8338 102.83 18.7906 102.645 18.7323L102.587 18.0761L106.691 17.7171L106.748 18.3733C106.582 18.4623 106.415 18.536 106.246 18.5942C106.083 18.6457 105.936 18.7113 105.807 18.7909C105.517 18.959 105.389 19.2341 105.423 19.6161L106.036 26.6308L104.638 24.9092ZM97.0218 22.8004L97.629 29.7411C97.6791 30.3141 98.0512 30.6634 98.7451 30.789C98.9281 30.8226 99.1029 30.8694 99.2696 30.9293L99.3278 31.5948L95.1042 31.9643L95.046 31.2988C95.1935 31.2114 95.3483 31.1358 95.5104 31.072C95.6786 31.0076 95.8298 30.9261 95.9639 30.8274C96.2861 30.6067 96.4283 30.2808 96.3906 29.8495L95.6224 21.0695L97.0218 22.8004ZM95.943 20.1568C95.6424 20.1272 95.3763 20.1008 95.1445 20.0776C94.6194 20.0367 94.2844 20.0039 94.1394 19.9793L94.0384 18.8241L98.3359 18.4481L106.165 28.1003L106.416 30.9746L104.818 31.1145L95.943 20.1568ZM107.131 17.5389C107.934 17.5617 108.379 17.5694 108.465 17.5619L110.434 17.3896L110.515 18.3231C109.568 18.4991 108.994 19.0336 108.793 19.9266C108.741 20.1795 108.688 20.4262 108.634 20.6668C108.497 21.2997 108.317 21.7252 108.094 21.9434L107.521 21.9935L107.131 17.5389ZM115.282 27.8893C115.343 28.5794 115.534 28.9911 115.856 29.1243C116.004 29.1797 116.168 29.2119 116.349 29.2209C116.536 29.2294 116.732 29.2774 116.939 29.3648L116.999 30.0488L110.862 30.5857L110.802 29.9017C110.993 29.8167 111.179 29.7446 111.36 29.6853C111.541 29.6198 111.702 29.5436 111.843 29.4567C112.143 29.2567 112.275 28.9627 112.241 28.5745L111.256 17.3177L114.334 17.0484L115.282 27.8893ZM117.125 16.8042C117.211 16.7967 117.648 16.7119 118.434 16.55L118.824 21.0046L118.251 21.0548C117.994 20.8786 117.779 20.5839 117.606 20.1707C117.439 19.7568 117.305 19.4333 117.204 19.2C117.103 18.9606 116.972 18.7454 116.812 18.5544C116.459 18.1322 115.934 17.9173 115.238 17.9099L115.156 16.9765L117.125 16.8042ZM120.933 18.7154C120.889 18.2102 120.812 17.8941 120.702 17.7672C120.597 17.6336 120.5 17.552 120.41 17.5226C120.327 17.4926 120.235 17.4697 120.134 17.4536C120.033 17.4376 119.926 17.4221 119.813 17.4072C119.706 17.3917 119.594 17.3549 119.478 17.2969L119.417 16.6037L125.101 16.1064L125.162 16.7996C125.057 16.8771 124.953 16.9327 124.85 16.9665C124.748 17.0003 124.648 17.0339 124.552 17.0671C124.455 17.1004 124.369 17.139 124.292 17.183C124.215 17.227 124.15 17.2979 124.096 17.3957C123.983 17.5919 123.948 17.9425 123.993 18.4478L124.753 27.1353C124.797 27.6467 124.872 27.9692 124.977 28.1028C125.087 28.2297 125.184 28.3082 125.268 28.3382C125.357 28.3676 125.452 28.3903 125.553 28.4063C125.854 28.4421 126.066 28.4918 126.19 28.5555L126.25 29.2394L120.566 29.7367L120.506 29.0527C120.667 28.9704 120.822 28.9071 120.974 28.8628C121.131 28.8118 121.268 28.7501 121.386 28.6778C121.651 28.5179 121.767 28.247 121.734 27.865L120.933 18.7154ZM130.59 17.6378L129.223 17.3476C129.238 17.0856 129.242 16.8524 129.237 16.648C129.231 16.4374 129.239 16.2504 129.262 16.087C129.777 15.7998 130.65 15.5247 131.881 15.2618C132.076 15.2199 132.248 15.1925 132.396 15.1795C132.566 15.3509 132.692 15.5168 132.774 15.6772L137.996 26.0791C138.223 26.5373 138.466 26.8699 138.726 27.0769C138.992 27.2771 139.311 27.3765 139.683 27.3749L139.743 28.0589L133.838 28.5755L133.787 27.9933C133.933 27.8874 134.084 27.8059 134.24 27.7487C134.402 27.6849 134.549 27.6255 134.681 27.5705C134.969 27.4583 135.104 27.2914 135.084 27.0696C135.073 26.9463 134.996 26.7389 134.853 26.4472L130.59 17.6378ZM130.997 20.4798L129.438 26.6136C129.364 26.8995 129.335 27.1349 129.351 27.3197C129.367 27.5046 129.432 27.6448 129.546 27.7404C129.659 27.8298 129.796 27.8986 129.955 27.9467C130.12 27.9881 130.294 28.0226 130.476 28.0501C130.659 28.0776 130.83 28.1246 130.991 28.1913L131.046 28.8197L126.62 29.207L126.565 28.5786C126.681 28.4877 126.808 28.4114 126.945 28.3497C127.089 28.2875 127.231 28.2099 127.372 28.1168C127.699 27.8833 127.928 27.5249 128.06 27.0415L130.244 18.8974L130.997 20.4798ZM133.04 24.678L130.767 24.877L130.986 23.8706L132.585 23.7307L133.04 24.678ZM145.312 26.6683C145.349 26.6713 145.39 26.6708 145.433 26.6671C145.476 26.6633 145.519 26.6595 145.562 26.6558C146.955 26.5339 147.848 25.928 148.243 24.838C148.348 24.5432 148.435 24.2563 148.503 23.9771C148.578 23.6912 148.651 23.4272 148.723 23.1849C148.801 22.9422 148.914 22.7491 149.063 22.6057L149.692 22.5507L150.094 27.1533L145.39 27.5648L145.312 26.6683ZM144.558 27.6376L140.168 28.0217L140.109 27.3378C140.269 27.2554 140.425 27.1921 140.576 27.1478C140.733 27.0969 140.871 27.0352 140.988 26.9628C141.254 26.803 141.37 26.5321 141.336 26.1501L140.496 16.5476C140.462 16.1594 140.301 15.9097 140.012 15.7984C139.883 15.7476 139.737 15.7137 139.574 15.6969C139.417 15.6735 139.252 15.6351 139.08 15.5819L139.019 14.8887L144.796 14.3834L144.856 15.0765C144.677 15.1605 144.506 15.2282 144.343 15.2797C144.18 15.3251 144.039 15.384 143.921 15.4564C143.649 15.6167 143.531 15.891 143.565 16.2791L144.558 27.6376Z" fill="black"/>
</svg>
